<?xml version="1.0" encoding="iso-8859-1"?>
<!-- Generator: Adobe Illustrator 19.0.0, SVG Export Plug-In . SVG Version: 6.00 Build 0)  -->
<svg version="1.1" id="Layer_1" xmlns="http://www.w3.org/2000/svg" xmlns:xlink="http://www.w3.org/1999/xlink" x="0px" y="0px"
	 viewBox="0 0 461.978 461.978" style="enable-background:new 0 0 461.978 461.978;" xml:space="preserve">
<g>
	<g>
		<g>
			<circle cx="333.248" cy="128.734" r="40.221"/>
			<path d="M448.054,156.375c-5.136-1.2-10.266,1.987-11.466,7.119l-13.124,56.104l-4.254,18.184
				c-1.738,0.264,2.512-0.873-58.393,16.424l-27.404-45.853l27.92,26.977l7.408-2.104l1.305-18.385
				c1.008-14.205-9.69-26.537-23.894-27.545l-43.764-3.106c-7.172-0.509-14.23,1.999-19.472,6.92
				c-5.242,4.921-8.192,11.806-8.137,18.996l0.957,125.786h-10.601V208.437c0-7.641-6.194-13.835-13.835-13.835
				c-7.641,0-13.835,6.194-13.835,13.835c0,10.568,0,229.235,0,239.532c0,7.641,6.194,13.834,13.835,13.834
				c7.641,0,13.835-6.194,13.835-13.834v-38.344h79.299v38.344c0,7.641,6.194,13.834,13.835,13.834s13.835-6.194,13.835-13.834
				v-98.243c0-0.619-0.055-1.223-0.133-1.821l10.91,2.817l11.899,93.132c1.451,11.354,11.826,19.406,23.215,17.955
				c11.369-1.453,19.407-11.846,17.954-23.214l-13.681-107.081c-1.077-8.423-7.176-15.34-15.397-17.463l-33.645-8.686
				c-10.441,2.965-7.997,2.271-18.485,5.25c-13.874,3.94-28.316-4.113-32.256-17.987l-0.014-0.048l-18.744-66.484l34.21,57.241
				c4.016,6.721,12.045,9.901,19.568,7.764l69.012-19.599c9.188-2.609,14.52-12.172,11.911-21.359
				c-0.388-1.365-0.945-2.632-1.615-3.813l4.832-20.658l13.528-57.831C456.374,162.709,453.186,157.575,448.054,156.375z
				 M344.433,363.56v26.979h-79.299V363.56H344.433z"/>
			<path d="M158.922,241.316c-16.735,7.373-36.389-1.038-42.396-18.636c-6.007,17.598-25.663,26.008-42.396,18.636l-4.927-2.17
				c0,0,0.008,179.159,0.008,200.589c0,11.816,9.579,21.395,21.396,21.395c11.817,0,21.396-9.579,21.396-21.395V268.72h9.238
				v171.014c0,4.969,1.709,9.531,4.552,13.163c3.916,5.004,9.997,8.232,16.843,8.232c11.816,0,21.395-9.579,21.395-21.395
				c-0.002-186.347-0.39-200.496-0.39-200.496L158.922,241.316z"/>
			<path d="M197.587,117.546c-7.545-12.456-21.131-19.691-34.85-19.691c-9.563,0-82.823,0-92.423,0
				c-15.483,0-29.861,8.994-36.629,22.915c-10.077,20.727-21.318,46.334-25.853,57.684c-3.57,8.922,0.571,19.068,9.366,22.941
				l62.407,27.489c9.006,3.969,19.533-0.116,23.503-9.129c3.944-8.955-0.073-19.515-9.129-23.504
				c-10.02-4.414-36.209-15.95-46.335-20.41c1.235-2.836,11.854-26.864,17.913-37.344c0.442-0.765,1.343-1.137,2.196-0.909
				c0.853,0.229,1.449,1.002,1.449,1.885v31.021l11.449,5.043v-26.664c0-1.62,0.771-3.144,2.076-4.104
				c1.305-0.96,2.989-1.243,4.536-0.76l28.897,9.007l28.897-9.007c1.547-0.482,3.231-0.2,4.536,0.76
				c1.305,0.96,2.076,2.484,2.076,4.104v26.987l11.973-5.274v-30.579c0-0.886,0.596-1.66,1.452-1.888
				c0.856-0.227,1.759,0.149,2.198,0.919c4.503,7.9,12.158,23.11,18.116,36.803l-46.334,20.41
				c-9.012,3.969-13.099,14.492-9.13,23.504c3.973,9.021,14.502,13.095,23.503,9.129l62.407-27.489
				c8.794-3.873,12.935-14.019,9.365-22.941C218.431,161.465,201.065,123.285,197.587,117.546z"/>
			<path d="M116.615,84.433c23.177,0,42.216-18.792,42.216-42.217C158.832,18.901,139.931,0,116.615,0
				C93.299,0,74.399,18.901,74.399,42.216C74.399,65.674,93.472,84.433,116.615,84.433z"/>
			<path d="M134.109,166.289c0-1.318-1.288-2.251-2.541-1.841l-16.041,5.257l-16.041-5.257c-1.253-0.411-2.541,0.523-2.541,1.841
				v16.685l18.582,7.919l18.582-7.919V166.289z"/>
		</g>
	</g>
</g>
<g>
</g>
<g>
</g>
<g>
</g>
<g>
</g>
<g>
</g>
<g>
</g>
<g>
</g>
<g>
</g>
<g>
</g>
<g>
</g>
<g>
</g>
<g>
</g>
<g>
</g>
<g>
</g>
<g>
</g>
</svg>
